<mxfile host="app.diagrams.net" agent="Mozilla/5.0 (Windows NT 10.0; Win64; x64) AppleWebKit/537.36 (KHTML, like Gecko) Chrome/135.0.0.0 Safari/537.36" version="26.2.14">
  <diagram name="Page-1" id="jGvoTgSZh9Bgtd4wH65n">
    <mxGraphModel dx="1426" dy="743" grid="1" gridSize="10" guides="1" tooltips="1" connect="1" arrows="1" fold="1" page="1" pageScale="1" pageWidth="827" pageHeight="1169" math="0" shadow="0">
      <root>
        <mxCell id="0" />
        <mxCell id="1" parent="0" />
        <mxCell id="F2RJwB3k2Bu29ZmBXy6T-33" value="Single species analysis" style="swimlane;whiteSpace=wrap;html=1;startSize=23;align=center;fillColor=light-dark(#3E6990,#3E6990);fontColor=#FFFFFF;strokeColor=light-dark(#3E6990,#A0D3FF);" parent="1" vertex="1">
          <mxGeometry x="17.37" y="300" width="592.63" height="310" as="geometry" />
        </mxCell>
        <mxCell id="F2RJwB3k2Bu29ZmBXy6T-55" style="edgeStyle=orthogonalEdgeStyle;rounded=0;orthogonalLoop=1;jettySize=auto;html=1;exitX=0.5;exitY=1;exitDx=0;exitDy=0;entryX=0.5;entryY=0;entryDx=0;entryDy=0;strokeColor=#9A6709;strokeWidth=2;" parent="F2RJwB3k2Bu29ZmBXy6T-33" source="F2RJwB3k2Bu29ZmBXy6T-44" target="F2RJwB3k2Bu29ZmBXy6T-45" edge="1">
          <mxGeometry relative="1" as="geometry">
            <Array as="points">
              <mxPoint x="355" y="110" />
              <mxPoint x="310" y="110" />
            </Array>
          </mxGeometry>
        </mxCell>
        <mxCell id="F2RJwB3k2Bu29ZmBXy6T-44" value="&lt;b&gt;Simulate an 80% abundance increase&lt;/b&gt; in the NTZ" style="rounded=1;whiteSpace=wrap;html=1;strokeColor=#7C5407;fillColor=#EFA00B;fontColor=#7C5407;" parent="F2RJwB3k2Bu29ZmBXy6T-33" vertex="1">
          <mxGeometry x="290" y="40" width="130" height="60" as="geometry" />
        </mxCell>
        <mxCell id="F2RJwB3k2Bu29ZmBXy6T-54" style="edgeStyle=orthogonalEdgeStyle;rounded=0;orthogonalLoop=1;jettySize=auto;html=1;exitX=1;exitY=0.5;exitDx=0;exitDy=0;entryX=0;entryY=0.5;entryDx=0;entryDy=0;strokeWidth=2;strokeColor=#7C5407;" parent="F2RJwB3k2Bu29ZmBXy6T-33" source="F2RJwB3k2Bu29ZmBXy6T-28" target="F2RJwB3k2Bu29ZmBXy6T-44" edge="1">
          <mxGeometry relative="1" as="geometry" />
        </mxCell>
        <mxCell id="F2RJwB3k2Bu29ZmBXy6T-28" value="Fish abundance prediction model" style="ellipse;whiteSpace=wrap;html=1;strokeColor=#9A6709;fillColor=#EFA00B;fontColor=#7C5407;" parent="F2RJwB3k2Bu29ZmBXy6T-33" vertex="1">
          <mxGeometry x="120" y="40" width="140" height="60" as="geometry" />
        </mxCell>
        <mxCell id="F2RJwB3k2Bu29ZmBXy6T-72" style="edgeStyle=orthogonalEdgeStyle;rounded=0;orthogonalLoop=1;jettySize=auto;html=1;exitX=1;exitY=0.5;exitDx=0;exitDy=0;entryX=0;entryY=0.5;entryDx=0;entryDy=0;strokeColor=#621E07;strokeWidth=2;" parent="F2RJwB3k2Bu29ZmBXy6T-33" source="F2RJwB3k2Bu29ZmBXy6T-45" target="F2RJwB3k2Bu29ZmBXy6T-47" edge="1">
          <mxGeometry relative="1" as="geometry">
            <Array as="points">
              <mxPoint x="370" y="170" />
              <mxPoint x="433" y="170" />
              <mxPoint x="433" y="55" />
            </Array>
          </mxGeometry>
        </mxCell>
        <mxCell id="F2RJwB3k2Bu29ZmBXy6T-74" style="edgeStyle=orthogonalEdgeStyle;rounded=0;orthogonalLoop=1;jettySize=auto;html=1;exitX=1;exitY=0.5;exitDx=0;exitDy=0;entryX=0;entryY=0.5;entryDx=0;entryDy=0;strokeColor=#621E07;strokeWidth=2;" parent="F2RJwB3k2Bu29ZmBXy6T-33" source="F2RJwB3k2Bu29ZmBXy6T-45" target="F2RJwB3k2Bu29ZmBXy6T-57" edge="1">
          <mxGeometry relative="1" as="geometry">
            <Array as="points">
              <mxPoint x="433" y="170" />
              <mxPoint x="433" y="213" />
            </Array>
          </mxGeometry>
        </mxCell>
        <mxCell id="F2RJwB3k2Bu29ZmBXy6T-75" style="edgeStyle=orthogonalEdgeStyle;rounded=0;orthogonalLoop=1;jettySize=auto;html=1;exitX=1;exitY=0.5;exitDx=0;exitDy=0;entryX=0;entryY=0.5;entryDx=0;entryDy=0;strokeColor=#621E07;strokeWidth=2;" parent="F2RJwB3k2Bu29ZmBXy6T-33" source="F2RJwB3k2Bu29ZmBXy6T-45" target="F2RJwB3k2Bu29ZmBXy6T-49" edge="1">
          <mxGeometry relative="1" as="geometry">
            <Array as="points">
              <mxPoint x="433" y="170" />
              <mxPoint x="433" y="155" />
            </Array>
          </mxGeometry>
        </mxCell>
        <mxCell id="F2RJwB3k2Bu29ZmBXy6T-76" style="edgeStyle=orthogonalEdgeStyle;rounded=0;orthogonalLoop=1;jettySize=auto;html=1;exitX=1;exitY=0.5;exitDx=0;exitDy=0;entryX=0;entryY=0.5;entryDx=0;entryDy=0;strokeColor=#621E07;strokeWidth=2;" parent="F2RJwB3k2Bu29ZmBXy6T-33" source="F2RJwB3k2Bu29ZmBXy6T-45" target="F2RJwB3k2Bu29ZmBXy6T-48" edge="1">
          <mxGeometry relative="1" as="geometry">
            <Array as="points">
              <mxPoint x="433" y="170" />
              <mxPoint x="433" y="105" />
            </Array>
          </mxGeometry>
        </mxCell>
        <mxCell id="F2RJwB3k2Bu29ZmBXy6T-45" value="&lt;b&gt;Extract abundance values&lt;/b&gt; at simulated sampling design points" style="rounded=1;whiteSpace=wrap;html=1;strokeColor=#9A6709;fillColor=#EFA00B;fontColor=#7C5407;" parent="F2RJwB3k2Bu29ZmBXy6T-33" vertex="1">
          <mxGeometry x="250" y="130" width="120" height="80" as="geometry" />
        </mxCell>
        <mxCell id="F2RJwB3k2Bu29ZmBXy6T-47" value="Mean Bias" style="rounded=1;whiteSpace=wrap;html=1;fillColor=#A3320B;strokeColor=#621E07;fontColor=#FFFFFF;" parent="F2RJwB3k2Bu29ZmBXy6T-33" vertex="1">
          <mxGeometry x="472.63" y="40" width="90" height="30" as="geometry" />
        </mxCell>
        <mxCell id="F2RJwB3k2Bu29ZmBXy6T-48" value="Root-Mean-Square-Error (RMSE&lt;span style=&quot;font-family: monospace; font-size: 0px; text-align: start; text-wrap-mode: nowrap;&quot;&gt;%3CmxGraphModel%3E%3Croot%3E%3CmxCell%20id%3D%220%22%2F%3E%3CmxCell%20id%3D%221%22%20parent%3D%220%22%2F%3E%3CmxCell%20id%3D%222%22%20value%3D%22Mean%20Bias%22%20style%3D%22rounded%3D1%3BwhiteSpace%3Dwrap%3Bhtml%3D1%3B%22%20vertex%3D%221%22%20parent%3D%221%22%3E%3CmxGeometry%20x%3D%22220%22%20y%3D%22620%22%20width%3D%22120%22%20height%3D%2230%22%20as%3D%22geometry%22%2F%3E%3C%2FmxCell%3E%3C%2Froot%3E%3C%2FmxGraphModel%3E&lt;/span&gt;)" style="rounded=1;whiteSpace=wrap;html=1;fillColor=#A3320B;fontColor=#FFFFFF;strokeColor=#621E07;" parent="F2RJwB3k2Bu29ZmBXy6T-33" vertex="1">
          <mxGeometry x="461.31" y="80" width="101.32" height="50" as="geometry" />
        </mxCell>
        <mxCell id="F2RJwB3k2Bu29ZmBXy6T-49" value="Interval Coverage" style="rounded=1;whiteSpace=wrap;html=1;fillColor=#A3320B;fontColor=#FFFFFF;strokeColor=#621E07;" parent="F2RJwB3k2Bu29ZmBXy6T-33" vertex="1">
          <mxGeometry x="460" y="140" width="102.63" height="30" as="geometry" />
        </mxCell>
        <mxCell id="F2RJwB3k2Bu29ZmBXy6T-57" value="Significance test (Student&#39;s t-test, Mann Whitney U-test, or GEE)" style="rounded=1;whiteSpace=wrap;html=1;fillColor=#A3320B;fontColor=#FFFFFF;strokeColor=#621E07;" parent="F2RJwB3k2Bu29ZmBXy6T-33" vertex="1">
          <mxGeometry x="450" y="180" width="112.63" height="65" as="geometry" />
        </mxCell>
        <mxCell id="EZFL6kb4u4oL_2Tz702Q-21" style="edgeStyle=orthogonalEdgeStyle;rounded=0;orthogonalLoop=1;jettySize=auto;html=1;exitX=1;exitY=0.5;exitDx=0;exitDy=0;entryX=0;entryY=0.5;entryDx=0;entryDy=0;strokeColor=#9A6709;strokeWidth=2;" edge="1" parent="F2RJwB3k2Bu29ZmBXy6T-33" source="F2RJwB3k2Bu29ZmBXy6T-62" target="F2RJwB3k2Bu29ZmBXy6T-45">
          <mxGeometry relative="1" as="geometry" />
        </mxCell>
        <mxCell id="F2RJwB3k2Bu29ZmBXy6T-62" value="1000 spatially balanced sampling designs (20/30 and 25/25)" style="rounded=1;whiteSpace=wrap;html=1;strokeColor=#9A6709;fillColor=#EFA00B;fontColor=#7C5407;" parent="F2RJwB3k2Bu29ZmBXy6T-33" vertex="1">
          <mxGeometry x="40" y="160" width="130" height="50" as="geometry" />
        </mxCell>
        <mxCell id="EZFL6kb4u4oL_2Tz702Q-23" style="edgeStyle=orthogonalEdgeStyle;rounded=0;orthogonalLoop=1;jettySize=auto;html=1;exitX=1;exitY=0.5;exitDx=0;exitDy=0;entryX=0;entryY=0.5;entryDx=0;entryDy=0;strokeColor=#9A6709;strokeWidth=2;" edge="1" parent="F2RJwB3k2Bu29ZmBXy6T-33" source="F2RJwB3k2Bu29ZmBXy6T-61" target="F2RJwB3k2Bu29ZmBXy6T-45">
          <mxGeometry relative="1" as="geometry" />
        </mxCell>
        <mxCell id="F2RJwB3k2Bu29ZmBXy6T-61" value="1000 preferential sampling designs&lt;div&gt;(20/30 and 25/25)&lt;/div&gt;" style="rounded=1;whiteSpace=wrap;html=1;strokeColor=#9A6709;fillColor=#EFA00B;fontColor=#7C5407;" parent="F2RJwB3k2Bu29ZmBXy6T-33" vertex="1">
          <mxGeometry x="30" y="220" width="140" height="50" as="geometry" />
        </mxCell>
        <mxCell id="EZFL6kb4u4oL_2Tz702Q-25" style="edgeStyle=orthogonalEdgeStyle;rounded=0;orthogonalLoop=1;jettySize=auto;html=1;exitX=0.25;exitY=0;exitDx=0;exitDy=0;entryX=0;entryY=0.5;entryDx=0;entryDy=0;strokeColor=#9A6709;strokeWidth=2;" edge="1" parent="F2RJwB3k2Bu29ZmBXy6T-33" source="F2RJwB3k2Bu29ZmBXy6T-60" target="F2RJwB3k2Bu29ZmBXy6T-45">
          <mxGeometry relative="1" as="geometry" />
        </mxCell>
        <mxCell id="F2RJwB3k2Bu29ZmBXy6T-60" value="1000 clustered sampling designs" style="rounded=1;whiteSpace=wrap;html=1;strokeColor=#9A6709;fillColor=#EFA00B;fontColor=#7C5407;" parent="F2RJwB3k2Bu29ZmBXy6T-33" vertex="1">
          <mxGeometry x="182.63" y="260" width="117.37" height="40" as="geometry" />
        </mxCell>
        <mxCell id="EZFL6kb4u4oL_2Tz702Q-17" style="edgeStyle=orthogonalEdgeStyle;rounded=0;orthogonalLoop=1;jettySize=auto;html=1;exitX=0;exitY=1;exitDx=0;exitDy=0;entryX=0;entryY=0.5;entryDx=0;entryDy=0;fillColor=#f5f5f5;strokeColor=#666666;strokeWidth=2;" edge="1" parent="F2RJwB3k2Bu29ZmBXy6T-33" source="F2RJwB3k2Bu29ZmBXy6T-82" target="EZFL6kb4u4oL_2Tz702Q-15">
          <mxGeometry relative="1" as="geometry" />
        </mxCell>
        <mxCell id="EZFL6kb4u4oL_2Tz702Q-18" style="edgeStyle=orthogonalEdgeStyle;rounded=0;orthogonalLoop=1;jettySize=auto;html=1;exitX=0;exitY=1;exitDx=0;exitDy=0;entryX=0;entryY=0.5;entryDx=0;entryDy=0;fillColor=#f5f5f5;strokeColor=#666666;strokeWidth=2;" edge="1" parent="F2RJwB3k2Bu29ZmBXy6T-33" source="F2RJwB3k2Bu29ZmBXy6T-82" target="F2RJwB3k2Bu29ZmBXy6T-62">
          <mxGeometry relative="1" as="geometry" />
        </mxCell>
        <mxCell id="EZFL6kb4u4oL_2Tz702Q-19" style="edgeStyle=orthogonalEdgeStyle;rounded=0;orthogonalLoop=1;jettySize=auto;html=1;exitX=0;exitY=1;exitDx=0;exitDy=0;entryX=0;entryY=0.5;entryDx=0;entryDy=0;fillColor=#f5f5f5;strokeColor=#666666;strokeWidth=2;" edge="1" parent="F2RJwB3k2Bu29ZmBXy6T-33" source="F2RJwB3k2Bu29ZmBXy6T-82" target="F2RJwB3k2Bu29ZmBXy6T-61">
          <mxGeometry relative="1" as="geometry" />
        </mxCell>
        <mxCell id="EZFL6kb4u4oL_2Tz702Q-20" style="edgeStyle=orthogonalEdgeStyle;rounded=0;orthogonalLoop=1;jettySize=auto;html=1;exitX=0;exitY=1;exitDx=0;exitDy=0;entryX=0;entryY=0.5;entryDx=0;entryDy=0;fillColor=#f5f5f5;strokeColor=#666666;strokeWidth=2;" edge="1" parent="F2RJwB3k2Bu29ZmBXy6T-33" source="F2RJwB3k2Bu29ZmBXy6T-82" target="F2RJwB3k2Bu29ZmBXy6T-60">
          <mxGeometry relative="1" as="geometry" />
        </mxCell>
        <mxCell id="F2RJwB3k2Bu29ZmBXy6T-82" value="detrended bathymetry strata" style="rounded=0;whiteSpace=wrap;html=1;fillColor=#f5f5f5;fontColor=#333333;strokeColor=#666666;" parent="F2RJwB3k2Bu29ZmBXy6T-33" vertex="1">
          <mxGeometry x="10" y="40" width="80" height="60" as="geometry" />
        </mxCell>
        <mxCell id="EZFL6kb4u4oL_2Tz702Q-22" style="edgeStyle=orthogonalEdgeStyle;rounded=0;orthogonalLoop=1;jettySize=auto;html=1;exitX=1;exitY=0.5;exitDx=0;exitDy=0;entryX=0;entryY=0.5;entryDx=0;entryDy=0;strokeColor=#9A6709;strokeWidth=2;" edge="1" parent="F2RJwB3k2Bu29ZmBXy6T-33" source="EZFL6kb4u4oL_2Tz702Q-15" target="F2RJwB3k2Bu29ZmBXy6T-45">
          <mxGeometry relative="1" as="geometry" />
        </mxCell>
        <mxCell id="EZFL6kb4u4oL_2Tz702Q-15" value="1000 simple random sampling designs" style="rounded=1;whiteSpace=wrap;html=1;strokeColor=#9A6709;fillColor=#EFA00B;fontColor=#7C5407;" vertex="1" parent="F2RJwB3k2Bu29ZmBXy6T-33">
          <mxGeometry x="50" y="110" width="120" height="40" as="geometry" />
        </mxCell>
        <mxCell id="F2RJwB3k2Bu29ZmBXy6T-34" style="edgeStyle=orthogonalEdgeStyle;rounded=0;orthogonalLoop=1;jettySize=auto;html=1;exitX=0.5;exitY=1;exitDx=0;exitDy=0;entryX=0.5;entryY=0;entryDx=0;entryDy=0;strokeWidth=2;fillColor=#f5f5f5;strokeColor=#666666;" parent="1" source="F2RJwB3k2Bu29ZmBXy6T-3" target="F2RJwB3k2Bu29ZmBXy6T-25" edge="1">
          <mxGeometry relative="1" as="geometry">
            <Array as="points">
              <mxPoint x="260" y="60" />
              <mxPoint x="225" y="60" />
            </Array>
          </mxGeometry>
        </mxCell>
        <mxCell id="F2RJwB3k2Bu29ZmBXy6T-35" style="edgeStyle=orthogonalEdgeStyle;rounded=0;orthogonalLoop=1;jettySize=auto;html=1;exitX=0.5;exitY=1;exitDx=0;exitDy=0;entryX=0.5;entryY=0;entryDx=0;entryDy=0;strokeWidth=2;fillColor=#f5f5f5;strokeColor=#666666;" parent="1" source="F2RJwB3k2Bu29ZmBXy6T-3" target="F2RJwB3k2Bu29ZmBXy6T-24" edge="1">
          <mxGeometry relative="1" as="geometry">
            <Array as="points">
              <mxPoint x="260" y="60" />
              <mxPoint x="325" y="60" />
            </Array>
          </mxGeometry>
        </mxCell>
        <mxCell id="F2RJwB3k2Bu29ZmBXy6T-3" value="BRUV data" style="rounded=0;whiteSpace=wrap;html=1;fillColor=#f5f5f5;fontColor=#333333;strokeColor=#666666;fontFamily=Verdana;fontSize=11;verticalAlign=middle;" parent="1" vertex="1">
          <mxGeometry x="210" y="20" width="100" height="30" as="geometry" />
        </mxCell>
        <mxCell id="F2RJwB3k2Bu29ZmBXy6T-37" style="edgeStyle=orthogonalEdgeStyle;rounded=0;orthogonalLoop=1;jettySize=auto;html=1;exitX=0.5;exitY=1;exitDx=0;exitDy=0;strokeWidth=2;fillColor=#f5f5f5;strokeColor=#666666;" parent="1" source="F2RJwB3k2Bu29ZmBXy6T-8" target="F2RJwB3k2Bu29ZmBXy6T-26" edge="1">
          <mxGeometry relative="1" as="geometry">
            <Array as="points">
              <mxPoint x="99" y="70" />
              <mxPoint x="99" y="70" />
            </Array>
          </mxGeometry>
        </mxCell>
        <mxCell id="F2RJwB3k2Bu29ZmBXy6T-8" value="250m resolution bathymetry data" style="rounded=0;whiteSpace=wrap;html=1;fillColor=#f5f5f5;fontColor=#333333;strokeColor=#666666;fontFamily=Verdana;fontSize=11;verticalAlign=middle;" parent="1" vertex="1">
          <mxGeometry x="41.06" y="20" width="115.25" height="50" as="geometry" />
        </mxCell>
        <mxCell id="F2RJwB3k2Bu29ZmBXy6T-42" style="edgeStyle=orthogonalEdgeStyle;rounded=0;orthogonalLoop=1;jettySize=auto;html=1;exitX=0.25;exitY=1;exitDx=0;exitDy=0;strokeWidth=2;fillColor=#f5f5f5;strokeColor=#666666;entryX=0.5;entryY=0;entryDx=0;entryDy=0;" parent="1" source="F2RJwB3k2Bu29ZmBXy6T-24" target="F2RJwB3k2Bu29ZmBXy6T-28" edge="1">
          <mxGeometry relative="1" as="geometry">
            <Array as="points">
              <mxPoint x="303" y="210" />
              <mxPoint x="207" y="210" />
            </Array>
            <mxPoint x="270" y="359" as="targetPoint" />
          </mxGeometry>
        </mxCell>
        <mxCell id="EZFL6kb4u4oL_2Tz702Q-4" style="edgeStyle=orthogonalEdgeStyle;rounded=0;orthogonalLoop=1;jettySize=auto;html=1;exitX=0.5;exitY=1;exitDx=0;exitDy=0;entryX=0.008;entryY=0.64;entryDx=0;entryDy=0;entryPerimeter=0;fillColor=#f5f5f5;strokeColor=#666666;strokeWidth=2;" edge="1" parent="1" source="F2RJwB3k2Bu29ZmBXy6T-24" target="F2RJwB3k2Bu29ZmBXy6T-77">
          <mxGeometry relative="1" as="geometry" />
        </mxCell>
        <mxCell id="EZFL6kb4u4oL_2Tz702Q-5" style="edgeStyle=orthogonalEdgeStyle;rounded=0;orthogonalLoop=1;jettySize=auto;html=1;exitX=0.5;exitY=1;exitDx=0;exitDy=0;entryX=0;entryY=0.5;entryDx=0;entryDy=0;fillColor=#f5f5f5;strokeColor=#666666;strokeWidth=2;" edge="1" parent="1" source="F2RJwB3k2Bu29ZmBXy6T-24" target="F2RJwB3k2Bu29ZmBXy6T-78">
          <mxGeometry relative="1" as="geometry" />
        </mxCell>
        <mxCell id="EZFL6kb4u4oL_2Tz702Q-6" style="edgeStyle=orthogonalEdgeStyle;rounded=0;orthogonalLoop=1;jettySize=auto;html=1;exitX=0.5;exitY=1;exitDx=0;exitDy=0;entryX=0;entryY=0.5;entryDx=0;entryDy=0;fillColor=#f5f5f5;strokeColor=#666666;strokeWidth=2;" edge="1" parent="1" source="F2RJwB3k2Bu29ZmBXy6T-24" target="EZFL6kb4u4oL_2Tz702Q-3">
          <mxGeometry relative="1" as="geometry">
            <Array as="points">
              <mxPoint x="325" y="145" />
            </Array>
          </mxGeometry>
        </mxCell>
        <mxCell id="EZFL6kb4u4oL_2Tz702Q-10" style="edgeStyle=orthogonalEdgeStyle;rounded=0;orthogonalLoop=1;jettySize=auto;html=1;exitX=0.5;exitY=1;exitDx=0;exitDy=0;entryX=0;entryY=0.5;entryDx=0;entryDy=0;fillColor=#f5f5f5;strokeColor=#666666;strokeWidth=2;" edge="1" parent="1" source="F2RJwB3k2Bu29ZmBXy6T-24" target="EZFL6kb4u4oL_2Tz702Q-2">
          <mxGeometry relative="1" as="geometry" />
        </mxCell>
        <mxCell id="EZFL6kb4u4oL_2Tz702Q-11" style="edgeStyle=orthogonalEdgeStyle;rounded=0;orthogonalLoop=1;jettySize=auto;html=1;exitX=0.5;exitY=1;exitDx=0;exitDy=0;entryX=0;entryY=0.5;entryDx=0;entryDy=0;fillColor=#f5f5f5;strokeColor=#666666;strokeWidth=2;" edge="1" parent="1" source="F2RJwB3k2Bu29ZmBXy6T-24" target="EZFL6kb4u4oL_2Tz702Q-1">
          <mxGeometry relative="1" as="geometry" />
        </mxCell>
        <mxCell id="F2RJwB3k2Bu29ZmBXy6T-24" value="Fish (MaxN)" style="rounded=0;whiteSpace=wrap;html=1;fillColor=#f5f5f5;fontColor=#333333;strokeColor=#666666;" parent="1" vertex="1">
          <mxGeometry x="280" y="80" width="90" height="30" as="geometry" />
        </mxCell>
        <mxCell id="F2RJwB3k2Bu29ZmBXy6T-39" style="edgeStyle=orthogonalEdgeStyle;rounded=0;orthogonalLoop=1;jettySize=auto;html=1;exitX=0.25;exitY=1;exitDx=0;exitDy=0;entryX=1;entryY=0;entryDx=0;entryDy=0;strokeWidth=2;fillColor=#f5f5f5;strokeColor=#666666;" parent="1" source="F2RJwB3k2Bu29ZmBXy6T-25" target="F2RJwB3k2Bu29ZmBXy6T-27" edge="1">
          <mxGeometry relative="1" as="geometry">
            <Array as="points" />
          </mxGeometry>
        </mxCell>
        <mxCell id="F2RJwB3k2Bu29ZmBXy6T-25" value="Habitat (point observation)" style="rounded=0;whiteSpace=wrap;html=1;fillColor=#f5f5f5;fontColor=#333333;strokeColor=#666666;" parent="1" vertex="1">
          <mxGeometry x="180" y="80" width="90" height="50" as="geometry" />
        </mxCell>
        <mxCell id="F2RJwB3k2Bu29ZmBXy6T-38" style="edgeStyle=orthogonalEdgeStyle;rounded=0;orthogonalLoop=1;jettySize=auto;html=1;exitX=0.5;exitY=1;exitDx=0;exitDy=0;entryX=0.283;entryY=0.038;entryDx=0;entryDy=0;strokeWidth=2;fillColor=#f5f5f5;strokeColor=#666666;entryPerimeter=0;" parent="1" source="F2RJwB3k2Bu29ZmBXy6T-26" target="F2RJwB3k2Bu29ZmBXy6T-27" edge="1">
          <mxGeometry relative="1" as="geometry">
            <Array as="points">
              <mxPoint x="94" y="180" />
              <mxPoint x="94" y="180" />
            </Array>
          </mxGeometry>
        </mxCell>
        <mxCell id="F2RJwB3k2Bu29ZmBXy6T-41" style="edgeStyle=orthogonalEdgeStyle;rounded=0;orthogonalLoop=1;jettySize=auto;html=1;exitX=0.75;exitY=1;exitDx=0;exitDy=0;entryX=0.397;entryY=-0.017;entryDx=0;entryDy=0;entryPerimeter=0;strokeWidth=2;fillColor=#f5f5f5;strokeColor=#666666;" parent="1" source="F2RJwB3k2Bu29ZmBXy6T-26" target="F2RJwB3k2Bu29ZmBXy6T-28" edge="1">
          <mxGeometry relative="1" as="geometry">
            <mxPoint x="180" y="330" as="targetPoint" />
            <Array as="points">
              <mxPoint x="139" y="160" />
              <mxPoint x="139" y="180" />
              <mxPoint x="193" y="180" />
            </Array>
          </mxGeometry>
        </mxCell>
        <mxCell id="F2RJwB3k2Bu29ZmBXy6T-83" style="edgeStyle=orthogonalEdgeStyle;rounded=0;orthogonalLoop=1;jettySize=auto;html=1;entryX=0.25;entryY=0;entryDx=0;entryDy=0;exitX=0.13;exitY=1.013;exitDx=0;exitDy=0;exitPerimeter=0;strokeWidth=2;fillColor=#f5f5f5;strokeColor=#666666;" parent="1" source="F2RJwB3k2Bu29ZmBXy6T-26" target="F2RJwB3k2Bu29ZmBXy6T-82" edge="1">
          <mxGeometry relative="1" as="geometry">
            <mxPoint x="63" y="160" as="sourcePoint" />
          </mxGeometry>
        </mxCell>
        <mxCell id="F2RJwB3k2Bu29ZmBXy6T-26" value="Bathymetry derivatives (aspect, detrended bathymetry, roughness)" style="rounded=0;whiteSpace=wrap;html=1;fillColor=#f5f5f5;fontColor=#333333;strokeColor=#666666;" parent="1" vertex="1">
          <mxGeometry x="17.37" y="100" width="152.63" height="60" as="geometry" />
        </mxCell>
        <mxCell id="F2RJwB3k2Bu29ZmBXy6T-40" style="edgeStyle=orthogonalEdgeStyle;rounded=0;orthogonalLoop=1;jettySize=auto;html=1;exitX=0.5;exitY=1;exitDx=0;exitDy=0;strokeWidth=2;strokeColor=#7C5407;entryX=0.212;entryY=0.117;entryDx=0;entryDy=0;entryPerimeter=0;" parent="1" source="F2RJwB3k2Bu29ZmBXy6T-27" target="F2RJwB3k2Bu29ZmBXy6T-28" edge="1">
          <mxGeometry relative="1" as="geometry">
            <mxPoint x="161" y="349" as="targetPoint" />
            <Array as="points">
              <mxPoint x="120" y="290" />
              <mxPoint x="167" y="290" />
            </Array>
          </mxGeometry>
        </mxCell>
        <mxCell id="F2RJwB3k2Bu29ZmBXy6T-27" value="Habitat prediction model" style="ellipse;whiteSpace=wrap;html=1;strokeColor=#9A6709;fillColor=#EFA00B;fontColor=#7C5407;" parent="1" vertex="1">
          <mxGeometry x="60" y="200" width="120" height="80" as="geometry" />
        </mxCell>
        <mxCell id="F2RJwB3k2Bu29ZmBXy6T-32" value="Community composition analysis" style="swimlane;whiteSpace=wrap;html=1;startSize=23;align=center;fillColor=light-dark(#3E6990,#3E6990);strokeColor=#3E6990;fontColor=light-dark(#ffffff, #ededed);" parent="1" vertex="1">
          <mxGeometry x="380" y="100" width="230" height="190" as="geometry" />
        </mxCell>
        <mxCell id="F2RJwB3k2Bu29ZmBXy6T-77" value="manyglm( ~ sampling design&lt;div&gt;+ protection status&lt;/div&gt;&lt;div&gt;+&amp;nbsp;&lt;span style=&quot;background-color: transparent;&quot;&gt;sampling design:protection status)&lt;/span&gt;&lt;/div&gt;" style="rounded=1;whiteSpace=wrap;html=1;align=left;fontColor=#FFFFFF;fillColor=#A3320B;strokeColor=#621E07;" parent="F2RJwB3k2Bu29ZmBXy6T-32" vertex="1">
          <mxGeometry x="90" y="70" width="130" height="110" as="geometry" />
        </mxCell>
        <mxCell id="EZFL6kb4u4oL_2Tz702Q-1" value="log skew" style="rounded=1;whiteSpace=wrap;html=1;strokeColor=#621E07;fillColor=#A3320B;fontColor=#FFFFFF;" vertex="1" parent="F2RJwB3k2Bu29ZmBXy6T-32">
          <mxGeometry x="10" y="100" width="65" height="30" as="geometry" />
        </mxCell>
        <mxCell id="EZFL6kb4u4oL_2Tz702Q-2" value="log mu&lt;span style=&quot;color: rgba(0, 0, 0, 0); font-family: monospace; font-size: 0px; text-align: start; text-wrap-mode: nowrap;&quot;&gt;%3CmxGraphModel%3E%3Croot%3E%3CmxCell%20id%3D%220%22%2F%3E%3CmxCell%20id%3D%221%22%20parent%3D%220%22%2F%3E%3CmxCell%20id%3D%222%22%20value%3D%22log%20skew%22%20style%3D%22rounded%3D1%3BwhiteSpace%3Dwrap%3Bhtml%3D1%3BstrokeColor%3D%23621E07%3BfillColor%3D%23A3320B%3BfontColor%3D%23FFFFFF%3B%22%20vertex%3D%221%22%20parent%3D%221%22%3E%3CmxGeometry%20x%3D%22540%22%20y%3D%22120%22%20width%3D%2280%22%20height%3D%2240%22%20as%3D%22geometry%22%2F%3E%3C%2FmxCell%3E%3C%2Froot%3E%3C%2FmxGraphModel%3E&lt;/span&gt;" style="rounded=1;whiteSpace=wrap;html=1;strokeColor=#621E07;fillColor=#A3320B;fontColor=#FFFFFF;" vertex="1" parent="F2RJwB3k2Bu29ZmBXy6T-32">
          <mxGeometry x="10" y="60" width="60" height="30" as="geometry" />
        </mxCell>
        <mxCell id="EZFL6kb4u4oL_2Tz702Q-3" value="total abundance" style="rounded=1;whiteSpace=wrap;html=1;strokeColor=#621E07;fillColor=#A3320B;fontColor=#FFFFFF;" vertex="1" parent="F2RJwB3k2Bu29ZmBXy6T-32">
          <mxGeometry x="100" y="30" width="110" height="30" as="geometry" />
        </mxCell>
        <mxCell id="F2RJwB3k2Bu29ZmBXy6T-78" value="PCoA" style="rounded=1;whiteSpace=wrap;html=1;fontColor=#FFFFFF;fillColor=#A3320B;strokeColor=#621E07;" parent="F2RJwB3k2Bu29ZmBXy6T-32" vertex="1">
          <mxGeometry x="10" y="150" width="60" height="30" as="geometry" />
        </mxCell>
      </root>
    </mxGraphModel>
  </diagram>
</mxfile>
